# xmcd
#
# Track frame offsets:
#	150
#	21594
#	40704
#	61213
#	78240
#	96187
#	115967
#	134416
#	149320
#	161459
#	175819
#	197460
#
# Disc length: 2779 seconds
#
# Revision: 0
# Processed by: cddbd v1.5.2PL0 Copyright (c) Steve Scherf et al.
# Submitted via: audiograbber 1.83.01
#
DISCID=9c0ad90c
DTITLE=The Greatest Country Music Recordings Of All time - Record 47
DYEAR=1900
DGENRE=
TTITLE0=Jerry Jeff Walker - L. A. Freeway
TTITLE1=Tompall Glaser - "T" For Texas
TTITLE2=Guy Clark - Desperados Waiting For a Train
TTITLE3=Willie Nelson - Me And Paul
TTITLE4=Willie Nelson - Red-Headed Stranger
TTITLE5=Jerry Jeff Walker - Hill Country Rain
TTITLE6=Kinky Friedman - We Reserve The Right To Refuse Service To Anyone
TTITLE7=Kinky Friedman - Sold American
TTITLE8=Alvin Crow - Crazy Little Mama (At My Door)
TTITLE9=Johnny Paycheck - I'm The Only Hell (Mama Ever Raised)
TTITLE10=Michael Murphy - Wildfire
TTITLE11=B. W. Stevenson - Shambala
EXTD=
EXTT0=
EXTT1=
EXTT2=
EXTT3=
EXTT4=
EXTT5=
EXTT6=
EXTT7=
EXTT8=
EXTT9=
EXTT10=
EXTT11=
PLAYORDER=
